<svg xmlns="http://www.w3.org/2000/svg" xmlns:xlink="http://www.w3.org/1999/xlink" id="earVJfwX3SR1" viewBox="0 0 612 792"><g transform="translate(0-.5)"><circle r="264" transform="translate(306.5 396.5)" fill="#bf4627"></circle><g><g><path d="M418.3,280.2c-39.1,0-70.9,31.8-70.9,70.9v88.5c0,16.9-13.7,30.6-30.6,30.6s-30.6-13.7-30.6-30.6v-85.5h-38.7v85.5c0,38.2,31.1,69.3,69.3,69.3s69.3-31.1,69.3-69.3v-25.4c9.7,5,20.6,7.8,32.2,7.8c39.1,0,70.9-31.8,70.9-70.9.1-39.1-31.8-70.9-70.9-70.9Zm0,103.2c-17.8,0-32.2-14.5-32.2-32.2s14.5-32.2,32.2-32.2c17.8,0,32.2,14.5,32.2,32.2s-14.4,32.2-32.2,32.2Z" fill="#fff"></path></g><polygon points="266.5,328.8 246.8,354.2 286.3,354.2" fill="#fff"></polygon><path d="M147,415.3v24.4c0,38.2,31.1,69.3,69.3,69.3s69.3-31.1,69.3-69.3v-85.5h-38.7v85.5c0,16.9-13.7,30.6-30.6,30.6s-30.6-13.7-30.6-30.6v-24.4c-10.7,8.9-29.3,8.2-38.7,0Z" fill="#fff" stroke-width="0"></path></g></g><ellipse id="earVJfwX3SR14" rx="235.836707" ry="235.836707" transform="matrix(.069966 0 0 0.069966 306.5 394.05)" fill="#bf4627" stroke-width="0"></ellipse></svg>