<?xml version="1.0" standalone="no"?>
<!DOCTYPE svg PUBLIC "-//W3C//DTD SVG 20010904//EN"
 "http://www.w3.org/TR/2001/REC-SVG-20010904/DTD/svg10.dtd">
<svg version="1.0" xmlns="http://www.w3.org/2000/svg"
 width="1200.000000pt" height="238.000000pt" viewBox="0 0 1200.000000 238.000000"
 preserveAspectRatio="xMidYMid meet">

<g transform="translate(0.000000,238.000000) scale(0.100000,-0.100000)"
fill="#000000" stroke="none">
<path d="M7435 2077 l-540 -304 -3 -580 -2 -581 512 -288 c282 -158 527 -296
543 -306 l31 -17 544 302 545 302 0 584 0 584 -544 303 c-299 167 -545 304
-545 304 -1 0 -244 -137 -541 -303z m696 -213 c82 -47 149 -89 149 -92 -1 -9
-298 -178 -309 -175 -13 3 -275 155 -289 167 -9 9 21 31 135 98 82 48 152 87
157 87 4 1 75 -38 157 -85z m674 -543 c58 -27 105 -52 105 -54 0 -3 -85 -52
-190 -109 l-190 -103 0 -271 c0 -205 -3 -274 -12 -282 -14 -11 -178 -102 -184
-102 -2 0 -4 123 -4 274 l0 274 -80 68 c-44 38 -76 72 -71 77 15 15 495 276
509 276 7 1 60 -21 117 -48z m-1270 -104 l170 -94 3 -326 c1 -180 0 -327 -2
-327 -3 0 -91 47 -197 105 l-192 105 -88 -39 c-48 -21 -90 -36 -93 -33 -7 6
-8 412 -2 412 3 0 86 -47 185 -105 99 -58 183 -105 186 -105 3 0 5 44 5 98 l0
97 -73 39 c-180 97 -279 159 -266 167 8 4 48 28 89 53 41 25 82 45 90 45 8 1
92 -41 185 -92z"/>
<path d="M232 1118 l3 -393 38 -3 37 -3 0 174 0 174 48 7 c101 13 122 53 122
228 0 182 -23 208 -183 208 l-67 0 2 -392z m156 300 c17 -17 17 -239 0 -256
-7 -7 -27 -12 -45 -12 l-33 0 0 140 0 140 33 0 c18 0 38 -5 45 -12z"/>
<path d="M880 1116 l0 -396 40 0 40 0 0 170 0 170 33 0 c54 0 57 -9 57 -182
l0 -158 40 0 40 0 0 164 c0 91 -5 177 -10 192 -8 19 -8 30 0 38 6 6 10 72 10
168 l0 158 -29 32 c-28 31 -31 32 -125 36 l-96 4 0 -396z m158 302 c17 -17 17
-249 0 -266 -7 -7 -27 -12 -45 -12 l-33 0 0 145 0 145 33 0 c18 0 38 -5 45
-12z"/>
<path d="M1601 1496 c-49 -27 -50 -39 -51 -384 0 -355 2 -368 60 -392 18 -7
53 -11 87 -8 46 4 61 10 80 32 l23 27 0 335 c0 211 -4 342 -10 355 -24 44
-134 65 -189 35z m107 -68 c17 -17 17 -619 0 -636 -15 -15 -51 -15 -66 0 -17
17 -17 619 0 636 7 7 21 12 33 12 12 0 26 -5 33 -12z"/>
<path d="M2242 1118 l3 -393 38 -3 37 -3 0 174 0 174 48 7 c101 13 122 53 122
228 0 182 -23 208 -183 208 l-67 0 2 -392z m156 300 c8 -8 12 -51 12 -128 0
-128 -5 -140 -57 -140 l-33 0 0 140 0 140 33 0 c18 0 38 -5 45 -12z"/>
<path d="M3600 1115 l0 -395 110 0 110 0 20 33 c11 17 20 35 20 40 0 4 -40 7
-90 7 l-90 0 0 349 c0 380 3 361 -56 361 l-24 0 0 -395z"/>
<path d="M4213 1475 l-35 -35 4 -88 c3 -95 -2 -81 113 -302 43 -82 50 -104 53
-166 3 -56 1 -74 -13 -87 -44 -44 -75 -8 -75 89 l0 75 -32 -17 c-44 -23 -48
-30 -48 -97 0 -99 35 -137 126 -137 100 0 129 42 122 178 -4 87 -5 89 -82 237
-70 133 -80 157 -84 215 -3 53 -1 69 13 83 38 39 75 8 75 -64 0 -27 3 -49 8
-49 4 0 22 9 40 20 29 18 32 25 32 66 0 39 -5 51 -34 80 -31 31 -40 34 -91 34
-52 0 -60 -3 -92 -35z"/>
<path d="M4882 1118 l3 -393 38 -3 37 -3 0 385 c0 371 -1 386 -19 396 -11 5
-29 10 -40 10 -21 0 -21 -1 -19 -392z"/>
<path d="M5373 1483 c3 -16 29 -183 57 -373 29 -192 58 -355 66 -368 10 -14
24 -22 43 -22 36 0 27 -37 91 390 28 184 53 350 56 368 6 32 6 32 -34 32 -48
0 -40 25 -83 -267 -18 -123 -36 -223 -39 -223 -3 0 -22 104 -40 232 -21 137
-40 237 -48 245 -7 7 -27 13 -44 13 -28 0 -30 -2 -25 -27z"/>
<path d="M6117 1503 c-4 -3 -7 -181 -7 -395 l0 -388 98 0 c53 0 102 4 108 8 6
4 19 22 28 40 l17 32 -86 0 -86 0 3 143 3 142 40 5 c34 4 43 11 58 40 l17 35
-60 3 -61 3 3 127 3 127 53 3 c47 3 55 6 72 35 11 18 20 35 20 40 0 9 -214 10
-223 0z"/>
<path d="M9527 1503 c-4 -3 -7 -21 -7 -40 l0 -33 55 0 55 0 2 -352 3 -353 37
-3 38 -3 2 353 3 353 53 3 c47 3 55 6 72 35 11 18 20 35 20 40 0 9 -324 10
-333 0z"/>
<path d="M10247 1503 c-4 -3 -7 -181 -7 -395 l0 -388 98 0 c53 0 102 4 108 8
6 4 19 22 28 40 l17 32 -86 0 -86 0 3 143 3 142 40 5 c34 4 43 11 58 40 l17
35 -60 3 -61 3 3 127 3 127 53 3 c47 3 55 6 72 35 11 18 20 35 20 40 0 9 -214
10 -223 0z"/>
<path d="M10931 1496 c-49 -27 -50 -39 -51 -384 0 -351 2 -366 55 -390 33 -15
97 -15 130 0 44 20 55 56 55 173 l0 106 -32 -17 c-18 -9 -35 -19 -38 -21 -3
-3 -7 -41 -10 -85 -4 -63 -9 -83 -22 -92 -13 -8 -23 -8 -35 0 -17 10 -18 37
-18 324 0 287 1 314 18 324 12 8 22 8 35 0 14 -9 17 -29 20 -113 l3 -101 32
16 c44 23 47 29 47 116 0 89 -13 124 -51 144 -35 17 -106 18 -138 0z"/>
<path d="M11542 1498 c-9 -9 -12 -110 -12 -395 l0 -383 40 0 40 0 0 181 0 180
53 -3 52 -3 3 -177 2 -178 40 0 40 0 0 383 c0 285 -3 386 -12 395 -7 7 -25 12
-40 12 l-28 0 0 -176 0 -175 -52 3 -53 3 -3 173 -2 172 -28 0 c-16 0 -33 -5
-40 -12z"/>
<path d="M2907 1493 c-4 -3 -7 -163 -7 -355 0 -379 2 -392 55 -416 33 -15 92
-15 134 -1 60 21 61 31 61 424 l0 355 -40 0 -40 0 0 -348 c0 -366 -1 -372 -45
-372 -44 0 -45 6 -45 372 l0 348 -33 0 c-19 0 -37 -3 -40 -7z"/>
</g>
</svg>
